<?xml version="1.0" encoding="utf-8"?>
<!-- Generator: Adobe Illustrator 26.0.3, SVG Export Plug-In . SVG Version: 6.00 Build 0)  -->
<svg version="1.0" id="katman_1" xmlns="http://www.w3.org/2000/svg" xmlns:xlink="http://www.w3.org/1999/xlink" x="0px" y="0px"
	 viewBox="0 0 600 450" style="enable-background:new 0 0 600 450;" xml:space="preserve">
<style type="text/css">
	.st0{fill:#4B4C9B;}
</style>
<path id="_x23_0da8ffff_1_" class="st0" d="M288.4,80.9c31.9-2.1,64.3,4.3,92.9,18.6c42.2,20.7,75.8,58.2,91.7,102.4
	c7,19.5,10.8,40.2,10.8,60.9v77c0,3.1,0.1,6.4-0.6,9.4c-1.7,7.8-7.2,14.6-14.6,17.9c-5.1,2.4-10.9,2.7-16.3,1.8
	c-11.8-2.2-20.8-13.2-21-25.1c-0.1-23.9,0-47.7,0-71.7c0.2-6.8,0.2-14-3.5-20c-5.9-11-20.4-16.3-32-11.6c-9.8,3.5-17,13.4-17.1,23.9
	c-0.1,24.3,0,48.5,0,72.7c0,4.5,0.2,9.2-1.1,13.5c-2.5,8.5-9.6,15.4-18.1,17.8c-11.2,3.1-24.1-1.8-29.8-12.2
	c-3.9-6.3-3.6-13.8-3.5-20.7c-0.1-24.1,0.1-48.2-0.1-72.3c-0.2-12.2-10.3-23.2-22.5-24.8c-7.9-1.2-16.2,1.4-21.9,7
	c-5.2,4.9-8.1,11.9-8.1,19v70.2c-0.1,5.9,0.6,12-1.6,17.5c-3.5,10-13.6,17.4-24.3,17.1c-10.9,0.6-21.6-6.9-25.1-17.2
	c-1.9-5.1-1.5-10.5-1.5-15.9c0-24.2,0.1-48.4,0-72.7c-0.1-12-9.4-22.9-21.2-25.1c-10.6-2.3-22.4,3.1-27.8,12.7
	c-2.3,4-3.5,8.6-3.5,13.2V343c0.1,7.7-3.5,15.2-9.3,20.1c-8.9,7.8-23.2,8.2-32.6,1.1c-6.8-4.6-10.8-12.5-10.8-20.7v-79.6
	c0.1-30.1,7.7-60.2,22-86.6c11.8-21.6,27.9-40.9,47.2-56.3C214.6,97.3,251.1,83.2,288.4,80.9z"/>
</svg>
